<?xml version="1.0" encoding="UTF-8"?>
<svg width="166px" height="210px" viewBox="0 0 166 210" version="1.1" xmlns="http://www.w3.org/2000/svg" xmlns:xlink="http://www.w3.org/1999/xlink">
    <!-- Generator: Sketch 41.2 (35397) - http://www.bohemiancoding.com/sketch -->
    <title>tp_solid_diamond_20</title>
    <desc>Created with Sketch.</desc>
    <defs>
        <rect id="path-1" x="0" y="0" width="166" height="210"></rect>
    </defs>
    <g id="Welcome" stroke="none" stroke-width="1" fill="none" fill-rule="evenodd">
        <g id="Desktop-v2" transform="translate(-1144.000000, -194.000000)">
            <g id="tp_solid_diamond_20" transform="translate(1144.000000, 194.000000)">
                <mask id="mask-2" fill="white">
                    <use xlink:href="#path-1"></use>
                </mask>
                <g id="tp_lattice" opacity="0.5"></g>
                <path d="M166,313 L248,210 L84,210 L166,313 Z M166,107 L248,210 L84,210 L166,107 Z" id="diamond-red-5" fill="#FFFFFF" opacity="0.200000018" mask="url(#mask-2)"></path>
                <path d="M0,313 L82,210 L-82,210 L0,313 Z M0,107 L82,210 L-82,210 L0,107 Z" id="diamond-red-4" fill="#FFFFFF" opacity="0.200000018" mask="url(#mask-2)"></path>
                <path d="M83,208 L165,105 L1,105 L83,208 Z M83,2 L165,105 L1,105 L83,2 Z" id="diamond-blue-5" fill="#FFFFFF" opacity="0.200000018" mask="url(#mask-2)"></path>
                <path d="M166,103 L248,2.84217094e-14 L84,2.84217094e-14 L166,103 Z M166,-103 L248,2.84217094e-14 L84,2.84217094e-14 L166,-103 Z" id="diamond-red-5" fill="#FFFFFF" opacity="0.200000018" mask="url(#mask-2)"></path>
                <path d="M0,103 L82,2.84217094e-14 L-82,2.84217094e-14 L0,103 Z M0,-103 L82,2.84217094e-14 L-82,2.84217094e-14 L0,-103 Z" id="diamond-red-4" fill="#FFFFFF" opacity="0.200000018" mask="url(#mask-2)"></path>
            </g>
        </g>
    </g>
</svg>